<svg xmlns="http://www.w3.org/2000/svg" xmlns:xlink="http://www.w3.org/1999/xlink" width="20" height="20" viewBox="0 0 20 20">
  <defs>
    <clipPath id="clip-path">
      <rect width="20" height="20" fill="none"/>
    </clipPath>
  </defs>
  <g id="instagram-instagram" clip-path="url(#clip-path)">
    <path id="e96c" d="M14.542,0H5.458A5.393,5.393,0,0,0,3.326.426,5.547,5.547,0,0,0,1.6,1.6,5.474,5.474,0,0,0,.426,3.344,5.226,5.226,0,0,0,0,5.453v9.095a5.416,5.416,0,0,0,1.6,3.845,5.641,5.641,0,0,0,1.727,1.161A5.172,5.172,0,0,0,5.458,20h9.083a5.172,5.172,0,0,0,2.132-.447A5.641,5.641,0,0,0,18.4,18.392,5.416,5.416,0,0,0,20,14.547V5.453a5.226,5.226,0,0,0-.426-2.109A5.474,5.474,0,0,0,18.4,1.6,5.547,5.547,0,0,0,16.674.426,5.393,5.393,0,0,0,14.542,0Zm3.646,14.547a3.638,3.638,0,0,1-3.646,3.621H5.458A3.516,3.516,0,0,1,2.878,17.1a3.484,3.484,0,0,1-1.066-2.556V5.453A3.519,3.519,0,0,1,2.878,2.886,3.5,3.5,0,0,1,5.458,1.81h9.083a3.5,3.5,0,0,1,2.58,1.076,3.519,3.519,0,0,1,1.066,2.567ZM10.725,5.453a3.675,3.675,0,0,0-1.365,0,4.161,4.161,0,0,0-1.684.618A4.672,4.672,0,0,0,6.4,7.263,4.741,4.741,0,0,0,5.65,8.839a4.462,4.462,0,0,0,.49,3.461,4.614,4.614,0,0,0,1.215,1.331,6.591,6.591,0,0,0,1.3.66,4.039,4.039,0,0,0,1.429.256q.149,0,.33-.011a.612.612,0,0,0,.309-.1,4.425,4.425,0,0,0,1.674-.6,4.616,4.616,0,0,0,1.333-1.214,4.335,4.335,0,0,0,.757-1.608,4.426,4.426,0,0,0,.053-1.757A4.273,4.273,0,0,0,13.294,6.72,4.406,4.406,0,0,0,10.725,5.453Zm1.557,6.092a3.743,3.743,0,0,1-.81.714,2.32,2.32,0,0,1-1.023.373,2.831,2.831,0,0,1-2.015-.522,2.465,2.465,0,0,1-1.077-1.757,2.509,2.509,0,0,1,.5-2.013,2.6,2.6,0,0,1,1.78-1.076h.725a2.728,2.728,0,0,1,2.281,2.279,2.393,2.393,0,0,1,.011,1.076A2.914,2.914,0,0,1,12.281,11.544Zm2.09-7.178a.766.766,0,0,0-.213.277.917.917,0,0,0-.064.362.857.857,0,0,0,.064.341.973.973,0,0,0,.213.3.813.813,0,0,0,.309.192,1,1,0,0,0,.33.064.86.86,0,0,0,.341-.064,1.174,1.174,0,0,0,.3-.192,1.031,1.031,0,0,0,.192-.33.956.956,0,0,0,.064-.309.917.917,0,0,0-.064-.362.892.892,0,0,0-1.471-.277Z" transform="translate(0)"/>
  </g>
</svg>
